<svg width="130" height="127" viewBox="0 0 130 127" fill="none" xmlns="http://www.w3.org/2000/svg">
<rect y="17" width="130" height="110" rx="17" fill="#E11515" fill-opacity="0.71"/>
<path d="M36.6992 94.2734C37.2148 95.7031 38.0703 96.6523 39.2656 97.1211C38.3281 97.4258 37.4492 97.9766 36.6289 98.7734C35.8086 99.5703 35.3633 100.086 35.293 100.32C34.543 102.641 32.5039 104.539 29.1758 106.016C26.1055 107.375 23.2344 108.055 20.5625 108.055C17.8906 108.055 15.6289 107.715 13.7773 107.035C11.9492 106.379 10.332 105.453 8.92578 104.258C5.83203 101.656 4.28516 98.4688 4.28516 94.6953C4.28516 92.2109 3.45312 90.418 1.78906 89.3164C2.49219 88.168 3.47656 87.5938 4.74219 87.5938C5.44531 87.5938 6.125 87.793 6.78125 88.1914C7.88281 86.7852 9.96875 86.082 13.0391 86.082C13.5547 86.082 13.918 86.2109 14.1289 86.4688C13.8242 86.8203 13.7539 87.3359 13.918 88.0156C14.1055 88.6719 14.1992 89.082 14.1992 89.2461V89.668C14.1992 89.7852 14.2227 89.9023 14.2695 90.0195C14.5039 89.9727 14.75 89.9492 15.0078 89.9492C15.2656 89.9492 15.582 90.0195 15.957 90.1602C16.3555 90.3008 16.707 90.5 17.0117 90.7578C17.7148 91.3438 18.0664 92.0352 18.0664 92.832C18.0664 93.043 18.0312 93.2305 17.9609 93.3945C17.5391 93.2305 17.082 93.1484 16.5898 93.1484C16.0977 93.1484 15.6055 93.2305 15.1133 93.3945C14.6211 93.5586 14.1641 93.8281 13.7422 94.2031C12.8047 95.0234 12.3359 96.2188 12.3359 97.7891C12.3359 99.3125 12.9219 100.625 14.0938 101.727C15.2891 102.805 16.8242 103.344 18.6992 103.344C20.5977 103.344 22.2852 102.793 23.7617 101.691V83.9375C23.7617 82.8594 23.5391 82.0625 23.0938 81.5469C22.3906 80.6797 21.1836 79.8242 19.4727 78.9805C21.0664 78.2539 22.0977 77.6094 22.5664 77.0469C23.3633 76.1328 23.7617 75.1016 23.7617 73.9531V59.1172C22.9648 57.3125 21.5234 56.4102 19.4375 56.4102C18.6406 56.4102 17.9844 56.6094 17.4688 57.0078C17.2109 56.6562 17.082 56.2578 17.082 55.8125C17.082 55.3438 17.2109 54.9102 17.4688 54.5117C17.75 54.1133 18.125 53.7734 18.5938 53.4922C19.6719 52.8359 20.9023 52.5078 22.2852 52.5078C23.6914 52.5078 24.9805 52.8945 26.1523 53.668C27.3711 52.8945 28.7305 52.5078 30.2305 52.5078C31.7305 52.5078 33.0898 52.8945 34.3086 53.668C35.4805 52.8945 36.582 52.5078 37.6133 52.5078C38.6445 52.5078 39.4883 52.6016 40.1445 52.7891C40.8008 52.9531 41.375 53.1875 41.8672 53.4922C42.875 54.1016 43.3789 54.8633 43.3789 55.7773C43.3789 56.2461 43.25 56.6562 42.9922 57.0078C42.4766 56.6094 41.8203 56.4102 41.0234 56.4102C38.9375 56.4102 37.4961 57.3125 36.6992 59.1172V73.9531C36.6992 75.1016 36.9453 75.957 37.4375 76.5195C38.2109 77.4336 39.3945 78.2539 40.9883 78.9805C39.2773 79.8242 38.1875 80.5156 37.7188 81.0547C37.0391 81.8984 36.6992 82.8594 36.6992 83.9375V94.2734ZM27.1367 97.6836C28.3086 97.2383 28.9531 95.7031 29.0703 93.0781C29.2109 90.4531 29.2812 86.8203 29.2812 82.1797C29.2812 77.5391 29.2695 74.457 29.2461 72.9336C29.2461 71.3867 29.2344 70.1445 29.2109 69.207C29.1406 66.4414 28.8711 64.7773 28.4023 64.2148C27.957 63.6289 27.5352 63.2422 27.1367 63.0547C27.1367 71.2109 26.9961 75.8516 26.7148 76.9766C26.3867 77.9141 25.5898 78.582 24.3242 78.9805C25.7305 79.4727 26.5273 80.0703 26.7148 80.7734C26.9961 81.8984 27.1367 86.0117 27.1367 93.1133V97.6836Z" fill="black"/>
<path d="M59.8867 43.5352C59.8867 42.8086 59.6289 42.1992 59.1133 41.707C58.6211 41.1914 58.0117 40.9336 57.2852 40.9336C56.582 40.9336 55.9727 41.1914 55.457 41.707C54.9648 42.1992 54.7188 42.8086 54.7188 43.5352C54.7188 44.2617 54.9648 44.8828 55.457 45.3984C55.9727 45.8906 56.582 46.1367 57.2852 46.1367C58.0117 46.1367 58.6211 45.8906 59.1133 45.3984C59.6289 44.8828 59.8867 44.2617 59.8867 43.5352ZM70.8555 57C76.6914 52.1953 79.6094 46.6523 79.6094 40.3711C79.6094 36.4336 78.2734 33.1875 75.6016 30.6328C72.9297 28.1016 69.5664 26.8359 65.5117 26.8359H64.4922C64.7266 26.9062 65.1602 27.0469 65.793 27.2578C68.7227 28.3594 70.9727 30.1758 72.543 32.707C74.1367 35.2383 74.9336 38.2031 74.9336 41.6016C74.9336 47.4844 73.5742 52.6172 70.8555 57ZM57.5313 71.3438C59.3125 70.8984 60.918 70.6758 62.3477 70.6758C63.8008 70.6758 64.9844 70.7578 65.8984 70.9219C66.8359 71.0625 67.75 71.2266 68.6406 71.4141C70.8906 71.9297 72.5547 72.1875 73.6328 72.1875C74.7344 72.1875 75.625 72.082 76.3047 71.8711C76.9844 71.6602 77.5703 71.4141 78.0625 71.1328C78.7422 70.7578 79.2695 70.3828 79.6445 70.0078C80.0195 69.6328 80.4531 69.4453 80.9453 69.4453C81.4609 69.4453 81.8945 69.6445 82.2461 70.043C82.6211 70.4414 82.8086 70.8047 82.8086 71.1328C82.8086 72.1641 81.8477 73.2422 79.9258 74.3672C78.0977 75.4219 76.1289 75.9492 74.0195 75.9492C72.7539 75.9492 71.2773 75.7734 69.5898 75.4219C66.3789 74.7188 64.1055 74.3672 62.7695 74.3672C59.793 74.3672 56.8398 75.0586 53.9102 76.4414C53.7461 76.5352 53.4414 76.582 52.9961 76.582C52.5508 76.582 52.1641 76.3945 51.8359 76.0195C51.5078 75.668 51.3438 75.3516 51.3438 75.0703C51.3438 75.0703 51.3438 74.8594 51.3438 74.4375C51.3438 73.8516 51.7422 72.9141 52.5391 71.625C53.3594 70.3359 54.1328 69.2812 54.8594 68.4609C55.6328 67.5703 56.9805 66.2578 58.9023 64.5234C60.8242 62.7656 62.4648 61.2305 63.8242 59.918C65.207 58.582 66.4492 57.0703 67.5508 55.3828C70.0352 51.5391 71.2773 47.0391 71.2773 41.8828C71.2773 38.4609 70.2695 35.625 68.2539 33.375C66.2148 31.125 63.625 30 60.4844 30C58.0234 30 56.0313 30.7148 54.5078 32.1445C53.0078 33.5742 52.2578 35.4961 52.2578 37.9102C52.2578 38.4961 52.3047 39.0703 52.3984 39.6328C53.6641 38.0625 55.3047 37.2773 57.3203 37.2773C59.0547 37.2773 60.5313 37.8867 61.75 39.1055C62.9688 40.3242 63.5781 41.8008 63.5781 43.5352C63.5781 45.2461 62.9688 46.7344 61.75 48C60.5313 49.2422 59.0547 49.8633 57.3203 49.8633C53.6875 49.8633 51.0859 47.8711 49.5156 43.8867C48.9063 42.3398 48.6016 40.3945 48.6016 38.0508C48.6016 35.6836 49.0938 33.5859 50.0781 31.7578C51.0859 29.9297 52.3867 28.3828 53.9805 27.1172C57.2617 24.4688 61.1055 23.1445 65.5117 23.1445C70.5977 23.1445 74.8281 24.7734 78.2031 28.0312C81.6016 31.2891 83.3008 35.4023 83.3008 40.3711C83.3008 47.8242 79.7031 54.3984 72.5078 60.0937C70.4688 61.7344 68.4883 63.1758 66.5664 64.418C64.668 65.6602 62.9688 66.8203 61.4688 67.8984C59.9688 68.9531 58.6563 70.1016 57.5313 71.3438Z" fill="black"/>
<path d="M93.3008 94.2734C92.7852 95.7031 91.9297 96.6523 90.7344 97.1211C91.6719 97.4258 92.5508 97.9766 93.3711 98.7734C94.1914 99.5703 94.6367 100.086 94.707 100.32C95.457 102.641 97.4961 104.539 100.824 106.016C103.895 107.375 106.766 108.055 109.438 108.055C112.109 108.055 114.371 107.715 116.223 107.035C118.051 106.379 119.668 105.453 121.074 104.258C124.168 101.656 125.715 98.4688 125.715 94.6953C125.715 92.2109 126.547 90.418 128.211 89.3164C127.508 88.168 126.523 87.5938 125.258 87.5938C124.555 87.5938 123.875 87.793 123.219 88.1914C122.117 86.7852 120.031 86.082 116.961 86.082C116.445 86.082 116.082 86.2109 115.871 86.4688C116.176 86.8203 116.246 87.3359 116.082 88.0156C115.895 88.6719 115.801 89.082 115.801 89.2461V89.668C115.801 89.7852 115.777 89.9023 115.73 90.0195C115.496 89.9727 115.25 89.9492 114.992 89.9492C114.734 89.9492 114.418 90.0195 114.043 90.1602C113.645 90.3008 113.293 90.5 112.988 90.7578C112.285 91.3438 111.934 92.0352 111.934 92.832C111.934 93.043 111.969 93.2305 112.039 93.3945C112.461 93.2305 112.918 93.1484 113.41 93.1484C113.902 93.1484 114.395 93.2305 114.887 93.3945C115.379 93.5586 115.836 93.8281 116.258 94.2031C117.195 95.0234 117.664 96.2188 117.664 97.7891C117.664 99.3125 117.078 100.625 115.906 101.727C114.711 102.805 113.176 103.344 111.301 103.344C109.402 103.344 107.715 102.793 106.238 101.691L106.238 83.9375C106.238 82.8594 106.461 82.0625 106.906 81.5469C107.609 80.6797 108.816 79.8242 110.527 78.9805C108.934 78.2539 107.902 77.6094 107.434 77.0469C106.637 76.1328 106.238 75.1016 106.238 73.9531V59.1172C107.035 57.3125 108.477 56.4102 110.562 56.4102C111.359 56.4102 112.016 56.6094 112.531 57.0078C112.789 56.6562 112.918 56.2578 112.918 55.8125C112.918 55.3438 112.789 54.9102 112.531 54.5117C112.25 54.1133 111.875 53.7734 111.406 53.4922C110.328 52.8359 109.098 52.5078 107.715 52.5078C106.309 52.5078 105.02 52.8945 103.848 53.668C102.629 52.8945 101.27 52.5078 99.7695 52.5078C98.2695 52.5078 96.9102 52.8945 95.6914 53.668C94.5195 52.8945 93.418 52.5078 92.3867 52.5078C91.3555 52.5078 90.5117 52.6016 89.8555 52.7891C89.1992 52.9531 88.625 53.1875 88.1328 53.4922C87.125 54.1016 86.6211 54.8633 86.6211 55.7773C86.6211 56.2461 86.75 56.6563 87.0078 57.0078C87.5234 56.6094 88.1797 56.4102 88.9766 56.4102C91.0625 56.4102 92.5039 57.3125 93.3008 59.1172V73.9531C93.3008 75.1016 93.0547 75.957 92.5625 76.5195C91.7891 77.4336 90.6055 78.2539 89.0117 78.9805C90.7227 79.8242 91.8125 80.5156 92.2812 81.0547C92.9609 81.8984 93.3008 82.8594 93.3008 83.9375V94.2734ZM102.863 97.6836C101.691 97.2383 101.047 95.7031 100.93 93.0781C100.789 90.4531 100.719 86.8203 100.719 82.1797C100.719 77.5391 100.73 74.457 100.754 72.9336C100.754 71.3867 100.766 70.1445 100.789 69.207C100.859 66.4414 101.129 64.7773 101.598 64.2148C102.043 63.6289 102.465 63.2422 102.863 63.0547C102.863 71.2109 103.004 75.8516 103.285 76.9766C103.613 77.9141 104.41 78.582 105.676 78.9805C104.27 79.4727 103.473 80.0703 103.285 80.7734C103.004 81.8984 102.863 86.0117 102.863 93.1133V97.6836Z" fill="black"/>
</svg>
