<svg width="141" height="143" viewBox="0 0 141 143" fill="none" xmlns="http://www.w3.org/2000/svg">
<rect y="11.1646" width="141" height="131.835" rx="17" fill="#E11515" fill-opacity="0.71"/>
<path d="M41.5186 102.601C42.1058 104.229 43.0801 105.31 44.4414 105.844C43.3737 106.191 42.3727 106.819 41.4385 107.726C40.5042 108.634 39.9971 109.221 39.917 109.488C39.0628 112.13 36.7406 114.292 32.9502 115.974C29.4535 117.522 26.1836 118.296 23.1406 118.296C20.0977 118.296 17.5218 117.909 15.4131 117.135C13.3311 116.388 11.4893 115.333 9.8877 113.972C6.36426 111.009 4.60254 107.379 4.60254 103.082C4.60254 100.252 3.65495 98.2101 1.75977 96.9556C2.56055 95.6476 3.68164 94.9937 5.12305 94.9937C5.92383 94.9937 6.69792 95.2205 7.44531 95.6743C8.69987 94.0728 11.0755 93.272 14.5723 93.272C15.1595 93.272 15.5732 93.4188 15.8135 93.7124C15.4665 94.1128 15.3864 94.7 15.5732 95.4741C15.7868 96.2215 15.8936 96.6886 15.8936 96.8755V97.356C15.8936 97.4894 15.9202 97.6229 15.9736 97.7563C16.2406 97.703 16.5208 97.6763 16.8145 97.6763C17.1081 97.6763 17.4684 97.7563 17.8955 97.9165C18.3493 98.0767 18.7497 98.3035 19.0967 98.5972C19.8975 99.2645 20.2979 100.052 20.2979 100.959C20.2979 101.2 20.2578 101.413 20.1777 101.6C19.6973 101.413 19.1768 101.32 18.6162 101.32C18.0557 101.32 17.4951 101.413 16.9346 101.6C16.374 101.787 15.8535 102.094 15.373 102.521C14.3053 103.455 13.7715 104.817 13.7715 106.605C13.7715 108.34 14.4388 109.835 15.7734 111.089C17.1348 112.317 18.8831 112.931 21.0186 112.931C23.1807 112.931 25.1025 112.304 26.7842 111.049V90.8296C26.7842 89.6017 26.5306 88.6942 26.0234 88.1069C25.2227 87.1193 23.848 86.145 21.8994 85.1841C23.7145 84.3566 24.889 83.6226 25.4229 82.9819C26.3304 81.9409 26.7842 80.7664 26.7842 79.4585V62.562C25.8766 60.5067 24.235 59.479 21.8594 59.479C20.9518 59.479 20.2044 59.7059 19.6172 60.1597C19.3236 59.7593 19.1768 59.3055 19.1768 58.7983C19.1768 58.2645 19.3236 57.7707 19.6172 57.3169C19.9375 56.8631 20.3646 56.4761 20.8984 56.1558C22.1263 55.4084 23.5277 55.0347 25.1025 55.0347C26.7041 55.0347 28.1722 55.4751 29.5068 56.356C30.8949 55.4751 32.443 55.0347 34.1514 55.0347C35.8597 55.0347 37.4079 55.4751 38.7959 56.356C40.1305 55.4751 41.3851 55.0347 42.5596 55.0347C43.734 55.0347 44.695 55.1414 45.4424 55.355C46.1898 55.5418 46.8438 55.8088 47.4043 56.1558C48.5521 56.8498 49.126 57.7173 49.126 58.7583C49.126 59.2922 48.9792 59.7593 48.6855 60.1597C48.0983 59.7059 47.3509 59.479 46.4434 59.479C44.0677 59.479 42.4261 60.5067 41.5186 62.562V79.4585C41.5186 80.7664 41.7988 81.7407 42.3594 82.3813C43.2402 83.4224 44.5882 84.3566 46.4033 85.1841C44.4548 86.145 43.2135 86.9325 42.6797 87.5464C41.9056 88.5073 41.5186 89.6017 41.5186 90.8296V102.601ZM30.6279 106.485C31.9626 105.978 32.6966 104.229 32.8301 101.24C32.9902 98.2502 33.0703 94.1128 33.0703 88.8276C33.0703 83.5425 33.057 80.0324 33.0303 78.2974C33.0303 76.5356 33.0169 75.1209 32.9902 74.0532C32.9102 70.9035 32.6032 69.0083 32.0693 68.3677C31.5622 67.7004 31.0817 67.2599 30.6279 67.0464C30.6279 76.3354 30.4678 81.6206 30.1475 82.9019C29.7738 83.9696 28.8662 84.7303 27.4248 85.1841C29.0264 85.7446 29.9339 86.4253 30.1475 87.2261C30.4678 88.5073 30.6279 93.1919 30.6279 101.28V106.485Z" fill="black"/>
<path d="M62.8154 49.165C62.8154 48.3376 62.5218 47.6436 61.9346 47.083C61.374 46.4958 60.68 46.2021 59.8525 46.2021C59.0518 46.2021 58.3577 46.4958 57.7705 47.083C57.21 47.6436 56.9297 48.3376 56.9297 49.165C56.9297 49.9925 57.21 50.6999 57.7705 51.2871C58.3577 51.8477 59.0518 52.1279 59.8525 52.1279C60.68 52.1279 61.374 51.8477 61.9346 51.2871C62.5218 50.6999 62.8154 49.9925 62.8154 49.165ZM75.3076 64.5C81.9541 59.028 85.2773 52.7152 85.2773 45.5615C85.2773 41.0771 83.7559 37.3802 80.7129 34.4707C77.6699 31.5879 73.8395 30.1465 69.2217 30.1465H68.0605C68.3275 30.2266 68.8213 30.3867 69.542 30.627C72.8786 31.8815 75.4411 33.9502 77.2295 36.833C79.0446 39.7158 79.9521 43.0924 79.9521 46.9629C79.9521 53.6628 78.404 59.5085 75.3076 64.5ZM60.1328 80.8359C62.1615 80.3288 63.9899 80.0752 65.6182 80.0752C67.2731 80.0752 68.6211 80.1686 69.6621 80.3555C70.7298 80.5156 71.7708 80.7025 72.7852 80.916C75.3477 81.5033 77.2428 81.7969 78.4707 81.7969C79.7253 81.7969 80.7396 81.6768 81.5137 81.4365C82.2878 81.1963 82.9551 80.916 83.5156 80.5957C84.2897 80.1686 84.8903 79.7415 85.3174 79.3145C85.7445 78.8874 86.2383 78.6738 86.7988 78.6738C87.3861 78.6738 87.8799 78.9007 88.2803 79.3545C88.7074 79.8083 88.9209 80.222 88.9209 80.5957C88.9209 81.7702 87.8265 82.998 85.6377 84.2793C83.5557 85.4805 81.3135 86.0811 78.9111 86.0811C77.4697 86.0811 75.7881 85.8809 73.8662 85.4805C70.2093 84.6797 67.6201 84.2793 66.0986 84.2793C62.7087 84.2793 59.3454 85.0667 56.0088 86.6416C55.8219 86.7484 55.4749 86.8018 54.9678 86.8018C54.4606 86.8018 54.0202 86.5882 53.6465 86.1611C53.2728 85.7607 53.0859 85.4004 53.0859 85.0801C53.0859 85.0801 53.0859 84.8398 53.0859 84.3594C53.0859 83.6921 53.5397 82.6243 54.4473 81.1562C55.3815 79.6882 56.2624 78.487 57.0898 77.5527C57.9707 76.5384 59.5055 75.0436 61.6943 73.0684C63.8831 71.0664 65.7516 69.318 67.2998 67.8232C68.8747 66.3018 70.2894 64.5801 71.5439 62.6582C74.3734 58.2806 75.7881 53.1556 75.7881 47.2832C75.7881 43.3861 74.6403 40.1562 72.3447 37.5937C70.0225 35.0312 67.0729 33.75 63.4961 33.75C60.6934 33.75 58.4245 34.5641 56.6895 36.1924C54.9811 37.8206 54.127 40.0094 54.127 42.7588C54.127 43.4261 54.1803 44.0801 54.2871 44.7207C55.7285 42.9323 57.597 42.0381 59.8926 42.0381C61.8678 42.0381 63.5495 42.7321 64.9375 44.1201C66.3255 45.5081 67.0195 47.1898 67.0195 49.165C67.0195 51.1136 66.3255 52.8086 64.9375 54.25C63.5495 55.6647 61.8678 56.3721 59.8926 56.3721C55.7552 56.3721 52.7923 54.1032 51.0039 49.5654C50.3099 47.8037 49.9629 45.5882 49.9629 42.9189C49.9629 40.223 50.5234 37.834 51.6445 35.752C52.7923 33.6699 54.2738 31.9082 56.0889 30.4668C59.8258 27.4505 64.2035 25.9424 69.2217 25.9424C75.014 25.9424 79.832 27.7975 83.6758 31.5078C87.5462 35.2181 89.4814 39.9027 89.4814 45.5615C89.4814 54.0498 85.3841 61.5371 77.1895 68.0234C74.8672 69.8919 72.6117 71.5335 70.4229 72.9482C68.2607 74.363 66.3255 75.6842 64.6172 76.9121C62.9089 78.1133 61.4141 79.4212 60.1328 80.8359Z" fill="black"/>
<path d="M99.3123 102.601C98.725 104.229 97.7507 105.31 96.3894 105.844C97.4571 106.191 98.4581 106.819 99.3923 107.726C100.327 108.634 100.834 109.221 100.914 109.488C101.768 112.13 104.09 114.292 107.881 115.974C111.377 117.522 114.647 118.296 117.69 118.296C120.733 118.296 123.309 117.909 125.418 117.135C127.5 116.388 129.342 115.333 130.943 113.972C134.467 111.009 136.228 107.379 136.228 103.082C136.228 100.252 137.176 98.2101 139.071 96.9556C138.27 95.6476 137.149 94.9937 135.708 94.9937C134.907 94.9937 134.133 95.2205 133.385 95.6743C132.131 94.0728 129.755 93.272 126.259 93.272C125.671 93.272 125.258 93.4188 125.017 93.7124C125.364 94.1128 125.444 94.7 125.258 95.4741C125.044 96.2215 124.937 96.6886 124.937 96.8755V97.356C124.937 97.4894 124.911 97.6229 124.857 97.7563C124.59 97.703 124.31 97.6763 124.016 97.6763C123.723 97.6763 123.362 97.7563 122.935 97.9165C122.482 98.0767 122.081 98.3035 121.734 98.5972C120.933 99.2645 120.533 100.052 120.533 100.959C120.533 101.2 120.573 101.413 120.653 101.6C121.134 101.413 121.654 101.32 122.215 101.32C122.775 101.32 123.336 101.413 123.896 101.6C124.457 101.787 124.977 102.094 125.458 102.521C126.525 103.455 127.059 104.817 127.059 106.605C127.059 108.34 126.392 109.835 125.057 111.089C123.696 112.317 121.948 112.931 119.812 112.931C117.65 112.931 115.728 112.304 114.047 111.049V90.8296C114.047 89.6017 114.3 88.6942 114.807 88.1069C115.608 87.1193 116.983 86.145 118.931 85.1841C117.116 84.3566 115.942 83.6226 115.408 82.9819C114.5 81.9409 114.047 80.7664 114.047 79.4585V62.562C114.954 60.5067 116.596 59.479 118.971 59.479C119.879 59.479 120.626 59.7059 121.214 60.1597C121.507 59.7593 121.654 59.3055 121.654 58.7983C121.654 58.2645 121.507 57.7707 121.214 57.3169C120.893 56.8631 120.466 56.4761 119.932 56.1558C118.705 55.4084 117.303 55.0347 115.728 55.0347C114.127 55.0347 112.659 55.4751 111.324 56.356C109.936 55.4751 108.388 55.0347 106.679 55.0347C104.971 55.0347 103.423 55.4751 102.035 56.356C100.7 55.4751 99.4457 55.0347 98.2712 55.0347C97.0968 55.0347 96.1358 55.1414 95.3884 55.355C94.641 55.5418 93.9871 55.8088 93.4265 56.1558C92.2787 56.8498 91.7048 57.7173 91.7048 58.7583C91.7048 59.2922 91.8516 59.7593 92.1453 60.1597C92.7325 59.7059 93.4799 59.479 94.3875 59.479C96.7631 59.479 98.4047 60.5067 99.3123 62.562V79.4585C99.3123 80.7664 99.032 81.7407 98.4714 82.3813C97.5906 83.4224 96.2426 84.3566 94.4275 85.1841C96.3761 86.145 97.6173 86.9325 98.1511 87.5464C98.9252 88.5073 99.3123 89.6017 99.3123 90.8296L99.3123 102.601ZM110.203 106.485C108.868 105.978 108.134 104.229 108.001 101.24C107.841 98.2502 107.76 94.1128 107.76 88.8276C107.76 83.5425 107.774 80.0324 107.801 78.2974C107.801 76.5356 107.814 75.1209 107.841 74.0532C107.921 70.9035 108.228 69.0083 108.761 68.3677C109.269 67.7004 109.749 67.2599 110.203 67.0464C110.203 76.3354 110.363 81.6206 110.683 82.9019C111.057 83.9696 111.965 84.7303 113.406 85.1841C111.804 85.7446 110.897 86.4253 110.683 87.2261C110.363 88.5073 110.203 93.1919 110.203 101.28V106.485Z" fill="black"/>
</svg>
