<svg width="103" height="107" viewBox="0 0 103 107" fill="none" xmlns="http://www.w3.org/2000/svg">
<path d="M43.0075 101.373C40.9711 103.409 38.6461 104.852 36.0326 105.701C33.4192 106.549 30.7548 106.702 28.0395 106.159L27.734 101.373C32.6215 102.323 36.6436 101.22 39.8001 98.0638C44.2124 93.6514 43.8051 88.8318 38.5782 83.6048L16.9917 62.0183L3.95826 75.0517L0.699914 71.7933L17.4499 55.0434L42.142 79.7356C45.8756 83.4691 47.8102 87.1687 47.946 90.8343C48.0817 94.4321 46.4356 97.945 43.0075 101.373ZM82.3102 54.9428L85.5685 58.2011L60.5709 83.1987L57.9744 80.6022L58.2798 51.2771C58.3138 47.5775 57.9913 44.7434 57.3125 42.7749C56.6337 40.7384 55.6155 39.0413 54.2578 37.6837C52.1535 35.5793 49.7946 34.6799 47.1811 34.9854C44.5676 35.223 41.9202 36.6824 39.2389 39.3638C35.0641 43.5385 33.1464 48.1036 33.4858 53.059L28.6492 53.4154C28.4116 50.3946 28.9208 47.3739 30.1766 44.3531C31.4664 41.2984 33.4689 38.4134 36.1842 35.6981C39.8159 32.0664 43.5494 30.0639 47.3847 29.6906C51.2201 29.2493 54.6312 30.5221 57.618 33.5089C59.4508 35.3417 60.8085 37.514 61.6909 40.0256C62.5734 42.5373 62.9807 46.0332 62.9128 50.5134L62.7092 74.5438L82.3102 54.9428ZM98.0458 46.3347C96.0094 48.3712 93.6844 49.8137 91.0709 50.6622C88.4575 51.5107 85.7931 51.6635 83.0778 51.1204L82.7723 46.3347C87.6599 47.2851 91.6819 46.182 94.8384 43.0254C99.2508 38.6131 98.8435 33.7935 93.6165 28.5665L72.03 6.97996L58.9966 20.0134L55.7382 16.755L72.4882 0.0050613L97.1803 24.6972C100.914 28.4308 102.849 32.1303 102.984 35.796C103.12 39.3937 101.474 42.9066 98.0458 46.3347Z" fill="#0029FF" fill-opacity="0.88"/>
</svg>
