<svg width="146" height="71" viewBox="0 0 146 71" fill="none" xmlns="http://www.w3.org/2000/svg">
<path d="M19.522 70.588C15.602 70.588 11.976 69.7387 8.644 68.04C5.312 66.3413 2.60067 63.924 0.51 60.788L4.822 55.888C8.61133 61.5067 13.544 64.316 19.62 64.316C28.1133 64.316 32.36 59.2853 32.36 49.224V7.672H7.272V1.4H39.514V48.93C39.514 56.1167 37.8153 61.5393 34.418 65.198C31.086 68.7913 26.1207 70.588 19.522 70.588ZM102.036 63.728V70H53.9177V65.002L82.4357 37.072C86.029 33.544 88.4464 30.506 89.6877 27.958C90.9944 25.3447 91.6477 22.7313 91.6477 20.118C91.6477 16.0673 90.243 12.9313 87.4337 10.71C84.6897 8.42333 80.737 7.28 75.5757 7.28C67.5397 7.28 61.3004 9.828 56.8577 14.924L51.8597 10.612C54.5384 7.476 57.9357 5.05866 62.0517 3.36C66.233 1.66133 70.937 0.811997 76.1637 0.811997C83.1544 0.811997 88.675 2.478 92.7257 5.81C96.8417 9.07666 98.8997 13.5847 98.8997 19.334C98.8997 22.862 98.1157 26.2593 96.5477 29.526C94.9797 32.7927 92.007 36.5493 87.6297 40.796L64.3057 63.728H102.036ZM125.465 70.588C121.545 70.588 117.919 69.7387 114.587 68.04C111.255 66.3413 108.544 63.924 106.453 60.788L110.765 55.888C114.555 61.5067 119.487 64.316 125.563 64.316C134.057 64.316 138.303 59.2853 138.303 49.224V7.672H113.215V1.4H145.457V48.93C145.457 56.1167 143.759 61.5393 140.361 65.198C137.029 68.7913 132.064 70.588 125.465 70.588Z" fill="white"/>
</svg>
